/* XPM */
static char * hackme_xpm[] = {
"16 16 254 2",
"  	c None",
". 	c #4B4341",
"+ 	c #484C50",
"@ 	c #495059",
"# 	c #433A33",
"$ 	c #46494C",
"% 	c #4C606B",
"& 	c #494B4D",
"* 	c #494849",
"= 	c #4B4645",
"- 	c #504847",
"; 	c #545259",
"> 	c #566174",
", 	c #595863",
"' 	c #59504F",
") 	c #5E5454",
"! 	c #A47C63",
"~ 	c #0C213E",
"{ 	c #08284D",
"] 	c #0A3E74",
"^ 	c #030B15",
"/ 	c #092E4B",
"( 	c #104165",
"_ 	c #091C32",
": 	c #082D52",
"< 	c #06213D",
"[ 	c #051427",
"} 	c #091F3B",
"| 	c #072C52",
"1 	c #072040",
"2 	c #0C315C",
"3 	c #1866AE",
"4 	c #97735C",
"5 	c #0A1C31",
"6 	c #082E54",
"7 	c #0A386A",
"8 	c #030A14",
"9 	c #061A2E",
"0 	c #0A2D47",
"a 	c #08192D",
"b 	c #061B31",
"c 	c #041120",
"d 	c #0C355F",
"e 	c #0A294D",
"f 	c #051A2E",
"g 	c #04172E",
"h 	c #072543",
"i 	c #154578",
"j 	c #896853",
"k 	c #124178",
"l 	c #082340",
"m 	c #082143",
"n 	c #03060E",
"o 	c #071C33",
"p 	c #08263C",
"q 	c #071626",
"r 	c #04101D",
"s 	c #04101E",
"t 	c #0E4373",
"u 	c #092647",
"v 	c #051C33",
"w 	c #093E76",
"x 	c #072340",
"y 	c #103356",
"z 	c #886652",
"A 	c #144D8E",
"B 	c #082441",
"C 	c #081C35",
"D 	c #01060A",
"E 	c #0A2944",
"F 	c #11466C",
"G 	c #0B2038",
"H 	c #040E19",
"I 	c #020F1B",
"J 	c #092745",
"K 	c #081D35",
"L 	c #082746",
"M 	c #0A427C",
"N 	c #051524",
"O 	c #0E223B",
"P 	c #866654",
"Q 	c #0F325C",
"R 	c #07213A",
"S 	c #081C37",
"T 	c #010206",
"U 	c #082941",
"V 	c #135178",
"W 	c #0A233A",
"X 	c #041220",
"Y 	c #041224",
"Z 	c #072341",
"` 	c #071D34",
" .	c #071D39",
"..	c #093161",
"+.	c #06233E",
"@.	c #14508A",
"#.	c #826553",
"$.	c #155DA1",
"%.	c #0A3E69",
"&.	c #071D38",
"*.	c #020308",
"=.	c #082035",
"-.	c #0F3C5D",
";.	c #081B2F",
">.	c #030F1A",
",.	c #030F1D",
"'.	c #051C34",
").	c #071F3C",
"!.	c #0A437E",
"~.	c #0B4585",
"{.	c #093158",
"].	c #17548D",
"^.	c #7F6351",
"/.	c #124375",
"(.	c #0A3359",
"_.	c #09325A",
":.	c #030A12",
"<.	c #0A3A5B",
"[.	c #14557D",
"}.	c #0A243B",
"|.	c #051220",
"1.	c #040F1A",
"2.	c #071529",
"3.	c #092442",
"4.	c #083C6E",
"5.	c #0C3D73",
"6.	c #08345C",
"7.	c #16558D",
"8.	c #7A5F4E",
"9.	c #144885",
"0.	c #0B3C67",
"a.	c #0C4885",
"b.	c #061B2E",
"c.	c #0E334F",
"d.	c #0A2038",
"e.	c #05172B",
"f.	c #03111F",
"g.	c #061325",
"h.	c #072039",
"i.	c #094985",
"j.	c #0C4B8F",
"k.	c #0A3A64",
"l.	c #165A98",
"m.	c #735C4C",
"n.	c #113461",
"o.	c #092744",
"p.	c #093058",
"q.	c #02050C",
"r.	c #030D17",
"s.	c #0C3957",
"t.	c #104174",
"u.	c #0A3865",
"v.	c #06253E",
"w.	c #05182C",
"x.	c #0A284A",
"y.	c #093F73",
"z.	c #0B3768",
"A.	c #072641",
"B.	c #11395B",
"C.	c #6C594B",
"D.	c #0B213D",
"E.	c #09335A",
"F.	c #0C4988",
"G.	c #020A15",
"H.	c #041525",
"I.	c #0B2E46",
"J.	c #0E3153",
"K.	c #092946",
"L.	c #061B2B",
"M.	c #041423",
"N.	c #081F3A",
"O.	c #09457E",
"P.	c #0D5097",
"Q.	c #082645",
"R.	c #113556",
"S.	c #64554A",
"T.	c #0B1D32",
"U.	c #092846",
"V.	c #0A3360",
"W.	c #0D3A5F",
"X.	c #14587F",
"Y.	c #0B273F",
"Z.	c #103656",
"`.	c #0C2840",
" +	c #07192E",
".+	c #0A2848",
"++	c #0A3E6F",
"@+	c #092F58",
"#+	c #092A4A",
"$+	c #17446C",
"%+	c #5D5147",
"&+	c #0E243D",
"*+	c #0D365B",
"=+	c #0D4985",
"-+	c #030C19",
";+	c #0A3251",
">+	c #114161",
",+	c #081B2C",
"'+	c #0C2336",
")+	c #091A2E",
"!+	c #08213B",
"~+	c #081B30",
"{+	c #051E36",
"]+	c #06203F",
"^+	c #0E3D67",
"/+	c #266FAC",
"(+	c #554C45",
"_+	c #0C1E34",
":+	c #0B253F",
"<+	c #082A4C",
"[+	c #020912",
"}+	c #08233D",
"|+	c #0C3750",
"1+	c #081D31",
"2+	c #091724",
"3+	c #091829",
"4+	c #114A7B",
"5+	c #0B3356",
"6+	c #051B30",
"7+	c #07223F",
"8+	c #07233B",
"9+	c #1C4161",
"0+	c #4D4643",
"a+	c #143155",
"b+	c #0F253C",
"c+	c #072545",
"d+	c #010408",
"e+	c #04111D",
"f+	c #0E2C3F",
"g+	c #08141F",
"h+	c #09141F",
"i+	c #115286",
"j+	c #0C3154",
"k+	c #082A4D",
"l+	c #0B5193",
"m+	c #05182A",
"n+	c #183650",
"o+	c #46413F",
"p+	c #4E5B69",
"q+	c #384146",
"r+	c #313942",
"s+	c #2A2626",
"t+	c #272C32",
"u+	c #262D35",
"v+	c #23252B",
"w+	c #252B32",
"x+	c #242E37",
"y+	c #20303E",
"z+	c #20262E",
"A+	c #223344",
"B+	c #244362",
"C+	c #202730",
"D+	c #2A3641",
"E+	c #413E40",
". + @ # $ % & * = - ; > , ' ) ! ",
"~ { ] ^ / ( _ : < [ } | 1 2 3 4 ",
"5 6 7 8 9 0 a b c d e f g h i j ",
"k l m n o p q r s t u v w x y z ",
"A B C D E F G H I J K L M N O P ",
"Q R S T U V W X Y Z `  ...+.@.#.",
"$.%.&.*.=.-.;.>.,.'.).!.~.{.].^.",
"/.(._.:.<.[.}.|.1.2.3.4.5.6.7.8.",
"9.0.a.8 b.c.d.e.f.g.h.i.j.k.l.m.",
"n.o.p.q.r.s.t.u.v.w.x.y.z.A.B.C.",
"D.E.F.G.H.I.J.K.L.M.N.O.P.Q.R.S.",
"T.U.V.G.W.X.Y.Z.`. +.+++@+#+$+%+",
"&+*+=+-+;+>+,+'+)+!+~+{+]+^+/+(+",
"_+:+<+[+}+|+1+2+3+4+5+6+7+8+9+0+",
"a+b+c+d+e+f+,+g+h+i+j+k+l+m+n+o+",
"p+q+r+s+t+u+v+w+x+y+z+A+B+C+D+E+"};
