#define hackme_width 16
#define hackme_height 16
static unsigned char hackme_bits[] = {
   0x00, 0x00, 0xff, 0x1f, 0xff, 0x3f, 0xfe, 0x3d, 0xfe, 0x6f, 0xdf, 0x3f,
   0xfe, 0x2f, 0xde, 0x17, 0xfa, 0x27, 0xff, 0x2f, 0xbb, 0x67, 0xdf, 0x3f,
   0xfb, 0x3f, 0xff, 0x3d, 0xff, 0x6d, 0xfc, 0x6f };
